# xmcd
#
# Track frame offsets: 
#        150
#        2812
#        25025
#        47920
#        71552
#        101205
#        130825
#        150680
#        180297
#        201447
#        227345
#
# Disc length: 3392 seconds
#
# Revision: 1
# Processed by: cddbd v1.5.2PL0 Copyright (c) Steve Scherf et al.
# Submitted via: ExactAudioCopy v0.95b4
#
DISCID=890d3e0b
DTITLE=Brock, "Big" George - Live At Seventy Five
DYEAR=2007
DGENRE=Blues
TTITLE0=Intro by KFFA's Sonny Payne
TTITLE1=Cut You Loose
TTITLE2=M For Mississippi
TTITLE3=Forty-Four Blues
TTITLE4=All Night Long
TTITLE5=Everything's Gonna Be Alright
TTITLE6=No No Baby
TTITLE7=Short Dress Woman
TTITLE8=Bring The Blues Back Home
TTITLE9=Call Me A Lover/Down South
TTITLE10=Jody
EXTD=
EXTT0=
EXTT1=
EXTT2=
EXTT3=
EXTT4=
EXTT5=
EXTT6=
EXTT7=
EXTT8=
EXTT9=
EXTT10=
PLAYORDER=
